<svg id="visual" viewBox="0 0 900 500" width="900" height="500" xmlns="http://www.w3.org/2000/svg" xmlns:xlink="http://www.w3.org/1999/xlink" version="1.1"><path d="M0 127L21.5 124.2C43 121.3 86 115.7 128.8 107.2C171.7 98.7 214.3 87.3 257.2 93.3C300 99.3 343 122.7 385.8 129.5C428.7 136.3 471.3 126.7 514.2 115.7C557 104.7 600 92.3 642.8 87C685.7 81.7 728.3 83.3 771.2 93.3C814 103.3 857 121.7 878.5 130.8L900 140L900 0L878.5 0C857 0 814 0 771.2 0C728.3 0 685.7 0 642.8 0C600 0 557 0 514.2 0C471.3 0 428.7 0 385.8 0C343 0 300 0 257.2 0C214.3 0 171.7 0 128.8 0C86 0 43 0 21.5 0L0 0Z" fill="#1F487E" stroke-linecap="round" stroke-linejoin="miter"></path></svg>