<svg id="visual" viewBox="0 0 900 600" width="900" height="600" xmlns="http://www.w3.org/2000/svg" xmlns:xlink="http://www.w3.org/1999/xlink" version="1.1"><path d="M460 600L472.5 583.3C485 566.7 510 533.3 519.2 500C528.3 466.7 521.7 433.3 509.8 400C498 366.7 481 333.3 484.5 300C488 266.7 512 233.3 523 200C534 166.7 532 133.3 522.2 100C512.3 66.7 494.7 33.3 485.8 16.7L477 0L900 0L900 16.7C900 33.3 900 66.7 900 100C900 133.3 900 166.7 900 200C900 233.3 900 266.7 900 300C900 333.3 900 366.7 900 400C900 433.3 900 466.7 900 500C900 533.3 900 566.7 900 583.3L900 600Z" fill="#1F487E" stroke-linecap="round" stroke-linejoin="miter"></path></svg>